<mxfile host="Electron" modified="2023-11-16T10:42:38.183Z" agent="Mozilla/5.0 (Macintosh; Intel Mac OS X 10_15_7) AppleWebKit/537.36 (KHTML, like Gecko) draw.io/22.0.3 Chrome/114.0.5735.289 Electron/25.8.4 Safari/537.36" etag="AilJcOGlm--duhn2xtIU" version="22.0.3" type="device">
  <diagram name="Страница — 1" id="CjX45oQzphX2TgSqSJfK">
    <mxGraphModel dx="1405" dy="383" grid="1" gridSize="10" guides="1" tooltips="1" connect="1" arrows="1" fold="1" page="1" pageScale="1" pageWidth="827" pageHeight="1169" math="0" shadow="0">
      <root>
        <mxCell id="0" />
        <mxCell id="1" parent="0" />
        <mxCell id="pkM74S_QED3XADfvzPWk-1" value="Гость&amp;nbsp;" style="shape=umlActor;verticalLabelPosition=bottom;verticalAlign=top;html=1;outlineConnect=0;" vertex="1" parent="1">
          <mxGeometry x="70" y="260" width="70" height="100" as="geometry" />
        </mxCell>
        <mxCell id="pkM74S_QED3XADfvzPWk-2" value="" style="endArrow=none;html=1;rounded=0;" edge="1" parent="1" source="pkM74S_QED3XADfvzPWk-1" target="pkM74S_QED3XADfvzPWk-3">
          <mxGeometry width="50" height="50" relative="1" as="geometry">
            <mxPoint x="350" y="470" as="sourcePoint" />
            <mxPoint x="300" y="310" as="targetPoint" />
          </mxGeometry>
        </mxCell>
        <mxCell id="pkM74S_QED3XADfvzPWk-3" value="искать товар&amp;nbsp;" style="ellipse;whiteSpace=wrap;html=1;" vertex="1" parent="1">
          <mxGeometry x="230" y="275" width="140" height="70" as="geometry" />
        </mxCell>
        <mxCell id="pkM74S_QED3XADfvzPWk-4" value="Добавить товар в корзину" style="ellipse;whiteSpace=wrap;html=1;" vertex="1" parent="1">
          <mxGeometry x="460" y="345" width="140" height="70" as="geometry" />
        </mxCell>
        <mxCell id="pkM74S_QED3XADfvzPWk-5" value="применить поиск товаров" style="ellipse;whiteSpace=wrap;html=1;" vertex="1" parent="1">
          <mxGeometry x="460" y="205" width="140" height="70" as="geometry" />
        </mxCell>
        <mxCell id="pkM74S_QED3XADfvzPWk-6" value="&amp;lt;&amp;lt;extend&amp;gt;&amp;gt;" style="endArrow=open;endSize=12;dashed=1;html=1;rounded=0;entryX=0.992;entryY=0.66;entryDx=0;entryDy=0;entryPerimeter=0;exitX=0;exitY=0;exitDx=0;exitDy=0;" edge="1" parent="1" source="pkM74S_QED3XADfvzPWk-4" target="pkM74S_QED3XADfvzPWk-3">
          <mxGeometry width="160" relative="1" as="geometry">
            <mxPoint x="300" y="440" as="sourcePoint" />
            <mxPoint x="460" y="440" as="targetPoint" />
          </mxGeometry>
        </mxCell>
        <mxCell id="pkM74S_QED3XADfvzPWk-8" value="&amp;lt;&amp;lt;extend&amp;gt;&amp;gt;" style="endArrow=open;endSize=12;dashed=1;html=1;rounded=0;entryX=0.997;entryY=0.366;entryDx=0;entryDy=0;entryPerimeter=0;exitX=0.165;exitY=0.897;exitDx=0;exitDy=0;exitPerimeter=0;" edge="1" parent="1" source="pkM74S_QED3XADfvzPWk-5" target="pkM74S_QED3XADfvzPWk-3">
          <mxGeometry x="-0.0116" y="18" width="160" relative="1" as="geometry">
            <mxPoint x="490" y="294" as="sourcePoint" />
            <mxPoint x="379" y="260" as="targetPoint" />
            <Array as="points">
              <mxPoint x="430" y="279" />
            </Array>
            <mxPoint as="offset" />
          </mxGeometry>
        </mxCell>
        <mxCell id="pkM74S_QED3XADfvzPWk-12" value="" style="endArrow=block;endSize=16;endFill=0;html=1;rounded=0;" edge="1" parent="1">
          <mxGeometry width="160" relative="1" as="geometry">
            <mxPoint x="102" y="482" as="sourcePoint" />
            <mxPoint x="102" y="382" as="targetPoint" />
            <mxPoint as="offset" />
          </mxGeometry>
        </mxCell>
        <mxCell id="pkM74S_QED3XADfvzPWk-13" value="Покупатель" style="shape=umlActor;verticalLabelPosition=bottom;verticalAlign=top;html=1;" vertex="1" parent="1">
          <mxGeometry x="80" y="500" width="50" height="80" as="geometry" />
        </mxCell>
        <mxCell id="pkM74S_QED3XADfvzPWk-19" value="" style="endArrow=none;html=1;rounded=0;" edge="1" parent="1">
          <mxGeometry width="50" height="50" relative="1" as="geometry">
            <mxPoint x="130" y="539.6" as="sourcePoint" />
            <mxPoint x="220" y="539.6" as="targetPoint" />
            <Array as="points">
              <mxPoint x="170" y="539.6" />
            </Array>
          </mxGeometry>
        </mxCell>
        <mxCell id="pkM74S_QED3XADfvzPWk-20" value="Оформить Заказ&amp;nbsp;" style="ellipse;whiteSpace=wrap;html=1;" vertex="1" parent="1">
          <mxGeometry x="210" y="500" width="140" height="70" as="geometry" />
        </mxCell>
        <mxCell id="pkM74S_QED3XADfvzPWk-21" value="" style="endArrow=none;html=1;rounded=0;exitX=0.457;exitY=0.989;exitDx=0;exitDy=0;exitPerimeter=0;dashed=1;dashPattern=12 12;startArrow=open;startFill=0;" edge="1" parent="1" source="pkM74S_QED3XADfvzPWk-20">
          <mxGeometry width="50" height="50" relative="1" as="geometry">
            <mxPoint x="235" y="600" as="sourcePoint" />
            <mxPoint x="274" y="640" as="targetPoint" />
            <Array as="points">
              <mxPoint x="275" y="600" />
            </Array>
          </mxGeometry>
        </mxCell>
        <mxCell id="pkM74S_QED3XADfvzPWk-22" value="Выбрать способ получение&amp;nbsp;" style="ellipse;whiteSpace=wrap;html=1;" vertex="1" parent="1">
          <mxGeometry x="205" y="630" width="140" height="70" as="geometry" />
        </mxCell>
        <mxCell id="pkM74S_QED3XADfvzPWk-23" value="&amp;lt;&amp;lt;extend&amp;gt;&amp;gt;" style="text;html=1;align=center;verticalAlign=middle;resizable=0;points=[];autosize=1;strokeColor=none;fillColor=none;" vertex="1" parent="1">
          <mxGeometry x="230" y="600" width="90" height="30" as="geometry" />
        </mxCell>
        <mxCell id="pkM74S_QED3XADfvzPWk-24" value="" style="endArrow=none;html=1;rounded=0;dashed=1;dashPattern=12 12;startArrow=open;startFill=0;" edge="1" parent="1">
          <mxGeometry width="50" height="50" relative="1" as="geometry">
            <mxPoint x="420" y="534.5" as="sourcePoint" />
            <mxPoint x="350" y="534.5" as="targetPoint" />
            <Array as="points">
              <mxPoint x="371" y="535.5" />
            </Array>
          </mxGeometry>
        </mxCell>
        <mxCell id="pkM74S_QED3XADfvzPWk-25" value="Оплатит Заказ" style="ellipse;whiteSpace=wrap;html=1;" vertex="1" parent="1">
          <mxGeometry x="420" y="500" width="140" height="70" as="geometry" />
        </mxCell>
        <mxCell id="pkM74S_QED3XADfvzPWk-26" value="&amp;lt;&amp;lt;include&amp;gt;&amp;gt;" style="text;html=1;align=center;verticalAlign=middle;resizable=0;points=[];autosize=1;strokeColor=none;fillColor=none;" vertex="1" parent="1">
          <mxGeometry x="341" y="500" width="90" height="30" as="geometry" />
        </mxCell>
        <mxCell id="pkM74S_QED3XADfvzPWk-30" style="edgeStyle=orthogonalEdgeStyle;rounded=0;orthogonalLoop=1;jettySize=auto;html=1;startArrow=block;startFill=0;endArrow=none;endFill=0;" edge="1" parent="1" target="pkM74S_QED3XADfvzPWk-31">
          <mxGeometry relative="1" as="geometry">
            <mxPoint x="670" y="534.9999999999999" as="targetPoint" />
            <mxPoint x="560" y="535" as="sourcePoint" />
          </mxGeometry>
        </mxCell>
        <mxCell id="pkM74S_QED3XADfvzPWk-31" value="онлайн&amp;nbsp;" style="ellipse;whiteSpace=wrap;html=1;" vertex="1" parent="1">
          <mxGeometry x="690" y="469.9999999999999" width="140" height="70" as="geometry" />
        </mxCell>
        <mxCell id="pkM74S_QED3XADfvzPWk-32" value="при получение" style="ellipse;whiteSpace=wrap;html=1;" vertex="1" parent="1">
          <mxGeometry x="700" y="570" width="140" height="70" as="geometry" />
        </mxCell>
        <mxCell id="pkM74S_QED3XADfvzPWk-35" value="" style="endArrow=none;endFill=0;html=1;edgeStyle=orthogonalEdgeStyle;align=left;verticalAlign=top;rounded=0;entryX=0.025;entryY=0.345;entryDx=0;entryDy=0;entryPerimeter=0;" edge="1" parent="1" target="pkM74S_QED3XADfvzPWk-32">
          <mxGeometry x="-1" relative="1" as="geometry">
            <mxPoint x="625" y="535" as="sourcePoint" />
            <mxPoint x="711" y="594.9999999999999" as="targetPoint" />
            <Array as="points">
              <mxPoint x="625" y="594" />
            </Array>
          </mxGeometry>
        </mxCell>
        <mxCell id="pkM74S_QED3XADfvzPWk-53" value="Бариста&amp;nbsp;" style="shape=umlActor;verticalLabelPosition=bottom;verticalAlign=top;html=1;" vertex="1" parent="1">
          <mxGeometry x="50" y="845" width="30" height="60" as="geometry" />
        </mxCell>
        <mxCell id="pkM74S_QED3XADfvzPWk-56" value="" style="endArrow=none;html=1;rounded=0;" edge="1" parent="1">
          <mxGeometry width="50" height="50" relative="1" as="geometry">
            <mxPoint x="80" y="874.38" as="sourcePoint" />
            <mxPoint x="170" y="874.38" as="targetPoint" />
          </mxGeometry>
        </mxCell>
        <mxCell id="pkM74S_QED3XADfvzPWk-61" style="edgeStyle=orthogonalEdgeStyle;rounded=0;orthogonalLoop=1;jettySize=auto;html=1;exitX=0.953;exitY=0.276;exitDx=0;exitDy=0;entryX=0;entryY=0.5;entryDx=0;entryDy=0;dashed=1;dashPattern=12 12;endArrow=openThin;endFill=0;exitPerimeter=0;" edge="1" parent="1" source="pkM74S_QED3XADfvzPWk-63" target="pkM74S_QED3XADfvzPWk-60">
          <mxGeometry relative="1" as="geometry">
            <mxPoint x="510" y="880" as="sourcePoint" />
            <mxPoint x="590" y="950" as="targetPoint" />
          </mxGeometry>
        </mxCell>
        <mxCell id="pkM74S_QED3XADfvzPWk-57" value="проверить наличие товара (продукта)" style="ellipse;whiteSpace=wrap;html=1;" vertex="1" parent="1">
          <mxGeometry x="170" y="740" width="140" height="70" as="geometry" />
        </mxCell>
        <mxCell id="pkM74S_QED3XADfvzPWk-58" value="применить поиск товаров(продукта)" style="ellipse;whiteSpace=wrap;html=1;" vertex="1" parent="1">
          <mxGeometry x="431" y="740" width="140" height="70" as="geometry" />
        </mxCell>
        <mxCell id="pkM74S_QED3XADfvzPWk-59" value="&amp;lt;&amp;lt;extend&amp;gt;&amp;gt;" style="endArrow=open;endSize=12;dashed=1;html=1;rounded=0;entryX=1;entryY=0.5;entryDx=0;entryDy=0;exitX=-0.019;exitY=0.4;exitDx=0;exitDy=0;exitPerimeter=0;" edge="1" parent="1" source="pkM74S_QED3XADfvzPWk-58" target="pkM74S_QED3XADfvzPWk-57">
          <mxGeometry x="-0.0116" y="18" width="160" relative="1" as="geometry">
            <mxPoint x="640" y="839" as="sourcePoint" />
            <mxPoint x="520" y="846" as="targetPoint" />
            <Array as="points">
              <mxPoint x="360" y="770" />
            </Array>
            <mxPoint as="offset" />
          </mxGeometry>
        </mxCell>
        <mxCell id="pkM74S_QED3XADfvzPWk-60" value="приготовить продукт&amp;nbsp;&amp;nbsp;" style="ellipse;whiteSpace=wrap;html=1;" vertex="1" parent="1">
          <mxGeometry x="431" y="830" width="140" height="70" as="geometry" />
        </mxCell>
        <mxCell id="pkM74S_QED3XADfvzPWk-63" value="приготовить товар для продажи" style="ellipse;whiteSpace=wrap;html=1;" vertex="1" parent="1">
          <mxGeometry x="170" y="840" width="140" height="70" as="geometry" />
        </mxCell>
        <mxCell id="pkM74S_QED3XADfvzPWk-65" value="&amp;lt;&amp;lt;include&amp;gt;&amp;gt;" style="text;html=1;align=center;verticalAlign=middle;resizable=0;points=[];autosize=1;strokeColor=none;fillColor=none;" vertex="1" parent="1">
          <mxGeometry x="300" y="875" width="90" height="30" as="geometry" />
        </mxCell>
        <mxCell id="pkM74S_QED3XADfvzPWk-68" value="тут не отображается последовательность" style="text;html=1;align=center;verticalAlign=middle;resizable=0;points=[];autosize=1;strokeColor=none;fillColor=none;" vertex="1" parent="1">
          <mxGeometry x="81" y="1110" width="260" height="30" as="geometry" />
        </mxCell>
        <mxCell id="pkM74S_QED3XADfvzPWk-69" value="приготовить продукт&amp;nbsp;&amp;nbsp;" style="ellipse;whiteSpace=wrap;html=1;" vertex="1" parent="1">
          <mxGeometry x="470" y="1210" width="140" height="70" as="geometry" />
        </mxCell>
        <mxCell id="pkM74S_QED3XADfvzPWk-70" value="inc ex - используются как правило когда мы не можем запускать ВИ ОТДЕЛЬНО/ например не можем оплатить не сформировав заказ" style="text;html=1;align=center;verticalAlign=middle;resizable=0;points=[];autosize=1;strokeColor=none;fillColor=none;" vertex="1" parent="1">
          <mxGeometry x="-195" y="1058" width="790" height="30" as="geometry" />
        </mxCell>
        <mxCell id="pkM74S_QED3XADfvzPWk-71" value="" style="endArrow=none;html=1;rounded=0;entryX=0;entryY=0.5;entryDx=0;entryDy=0;" edge="1" parent="1" target="pkM74S_QED3XADfvzPWk-57">
          <mxGeometry width="50" height="50" relative="1" as="geometry">
            <mxPoint x="80" y="870" as="sourcePoint" />
            <mxPoint x="180" y="884.38" as="targetPoint" />
          </mxGeometry>
        </mxCell>
      </root>
    </mxGraphModel>
  </diagram>
</mxfile>
